<mxfile host="app.diagrams.net" modified="2021-03-09T05:39:55.028Z" agent="5.0 (Macintosh; Intel Mac OS X 11_2_1) AppleWebKit/537.36 (KHTML, like Gecko) Chrome/88.0.4324.192 Safari/537.36" etag="Rjm8YP9nVjMaSrGhidKa" version="14.2.9" type="github">
  <diagram id="ndnqMt7xUe5NHWU3s9yu" name="第 1 页">
    <mxGraphModel dx="946" dy="504" grid="1" gridSize="10" guides="1" tooltips="1" connect="1" arrows="1" fold="1" page="1" pageScale="1" pageWidth="827" pageHeight="1169" math="0" shadow="0">
      <root>
        <mxCell id="0" />
        <mxCell id="1" parent="0" />
        <mxCell id="NA9aod1qzqYgqfO9eW3W-5" style="edgeStyle=orthogonalEdgeStyle;rounded=0;orthogonalLoop=1;jettySize=auto;html=1;exitX=0.5;exitY=0;exitDx=0;exitDy=0;entryX=0.5;entryY=1;entryDx=0;entryDy=0;" edge="1" parent="1" source="NA9aod1qzqYgqfO9eW3W-2" target="NA9aod1qzqYgqfO9eW3W-4">
          <mxGeometry relative="1" as="geometry" />
        </mxCell>
        <mxCell id="NA9aod1qzqYgqfO9eW3W-2" value="Elasticsearch" style="rounded=1;whiteSpace=wrap;html=1;fillColor=#e1d5e7;strokeColor=#9673a6;" vertex="1" parent="1">
          <mxGeometry x="348" y="710" width="120" height="30" as="geometry" />
        </mxCell>
        <mxCell id="NA9aod1qzqYgqfO9eW3W-3" value="" style="rounded=0;whiteSpace=wrap;html=1;dashed=1;fillColor=#d5e8d4;strokeColor=#82b366;" vertex="1" parent="1">
          <mxGeometry x="129" y="760" width="570" height="100" as="geometry" />
        </mxCell>
        <mxCell id="NA9aod1qzqYgqfO9eW3W-4" value="Kibana" style="rounded=1;whiteSpace=wrap;html=1;fillColor=#e1d5e7;strokeColor=#9673a6;" vertex="1" parent="1">
          <mxGeometry x="348" y="650" width="120" height="30" as="geometry" />
        </mxCell>
        <mxCell id="NA9aod1qzqYgqfO9eW3W-30" style="edgeStyle=orthogonalEdgeStyle;rounded=0;orthogonalLoop=1;jettySize=auto;html=1;exitX=0.5;exitY=0;exitDx=0;exitDy=0;entryX=0.5;entryY=1;entryDx=0;entryDy=0;" edge="1" parent="1" source="NA9aod1qzqYgqfO9eW3W-6" target="NA9aod1qzqYgqfO9eW3W-2">
          <mxGeometry relative="1" as="geometry" />
        </mxCell>
        <mxCell id="NA9aod1qzqYgqfO9eW3W-6" value="" style="rounded=1;whiteSpace=wrap;html=1;fillColor=#dae8fc;strokeColor=#6c8ebf;" vertex="1" parent="1">
          <mxGeometry x="169" y="780" width="130" height="60" as="geometry" />
        </mxCell>
        <mxCell id="NA9aod1qzqYgqfO9eW3W-10" value="App" style="rounded=0;whiteSpace=wrap;html=1;" vertex="1" parent="1">
          <mxGeometry x="179" y="810" width="50" height="25" as="geometry" />
        </mxCell>
        <mxCell id="NA9aod1qzqYgqfO9eW3W-11" value="Loghub" style="rounded=0;whiteSpace=wrap;html=1;" vertex="1" parent="1">
          <mxGeometry x="239" y="810" width="50" height="25" as="geometry" />
        </mxCell>
        <mxCell id="NA9aod1qzqYgqfO9eW3W-12" value="Pod" style="text;html=1;strokeColor=none;fillColor=none;align=center;verticalAlign=middle;whiteSpace=wrap;rounded=0;" vertex="1" parent="1">
          <mxGeometry x="214" y="790" width="40" height="20" as="geometry" />
        </mxCell>
        <mxCell id="NA9aod1qzqYgqfO9eW3W-32" style="edgeStyle=orthogonalEdgeStyle;rounded=0;orthogonalLoop=1;jettySize=auto;html=1;exitX=0.5;exitY=0;exitDx=0;exitDy=0;" edge="1" parent="1" source="NA9aod1qzqYgqfO9eW3W-21">
          <mxGeometry relative="1" as="geometry">
            <mxPoint x="409" y="740" as="targetPoint" />
          </mxGeometry>
        </mxCell>
        <mxCell id="NA9aod1qzqYgqfO9eW3W-21" value="" style="rounded=1;whiteSpace=wrap;html=1;fillColor=#dae8fc;strokeColor=#6c8ebf;" vertex="1" parent="1">
          <mxGeometry x="509" y="780" width="130" height="60" as="geometry" />
        </mxCell>
        <mxCell id="NA9aod1qzqYgqfO9eW3W-22" value="App" style="rounded=0;whiteSpace=wrap;html=1;" vertex="1" parent="1">
          <mxGeometry x="519" y="810" width="50" height="25" as="geometry" />
        </mxCell>
        <mxCell id="NA9aod1qzqYgqfO9eW3W-23" value="Loghub" style="rounded=0;whiteSpace=wrap;html=1;" vertex="1" parent="1">
          <mxGeometry x="579" y="810" width="50" height="25" as="geometry" />
        </mxCell>
        <mxCell id="NA9aod1qzqYgqfO9eW3W-24" value="Pod" style="text;html=1;strokeColor=none;fillColor=none;align=center;verticalAlign=middle;whiteSpace=wrap;rounded=0;" vertex="1" parent="1">
          <mxGeometry x="554" y="790" width="40" height="20" as="geometry" />
        </mxCell>
        <mxCell id="NA9aod1qzqYgqfO9eW3W-31" style="edgeStyle=orthogonalEdgeStyle;rounded=0;orthogonalLoop=1;jettySize=auto;html=1;exitX=0.5;exitY=0;exitDx=0;exitDy=0;" edge="1" parent="1" source="NA9aod1qzqYgqfO9eW3W-25">
          <mxGeometry relative="1" as="geometry">
            <mxPoint x="409" y="740" as="targetPoint" />
          </mxGeometry>
        </mxCell>
        <mxCell id="NA9aod1qzqYgqfO9eW3W-25" value="" style="rounded=1;whiteSpace=wrap;html=1;fillColor=#dae8fc;strokeColor=#6c8ebf;" vertex="1" parent="1">
          <mxGeometry x="343" y="780" width="130" height="60" as="geometry" />
        </mxCell>
        <mxCell id="NA9aod1qzqYgqfO9eW3W-26" value="App" style="rounded=0;whiteSpace=wrap;html=1;" vertex="1" parent="1">
          <mxGeometry x="353" y="810" width="50" height="25" as="geometry" />
        </mxCell>
        <mxCell id="NA9aod1qzqYgqfO9eW3W-27" value="Loghub" style="rounded=0;whiteSpace=wrap;html=1;" vertex="1" parent="1">
          <mxGeometry x="413" y="810" width="50" height="25" as="geometry" />
        </mxCell>
        <mxCell id="NA9aod1qzqYgqfO9eW3W-28" value="Pod" style="text;html=1;strokeColor=none;fillColor=none;align=center;verticalAlign=middle;whiteSpace=wrap;rounded=0;" vertex="1" parent="1">
          <mxGeometry x="388" y="790" width="40" height="20" as="geometry" />
        </mxCell>
        <mxCell id="NA9aod1qzqYgqfO9eW3W-29" value="Deployment" style="text;html=1;strokeColor=none;fillColor=none;align=center;verticalAlign=middle;whiteSpace=wrap;rounded=0;" vertex="1" parent="1">
          <mxGeometry x="388" y="840" width="40" height="20" as="geometry" />
        </mxCell>
        <mxCell id="NA9aod1qzqYgqfO9eW3W-37" style="edgeStyle=orthogonalEdgeStyle;rounded=0;orthogonalLoop=1;jettySize=auto;html=1;exitX=1;exitY=0.5;exitDx=0;exitDy=0;entryX=0.468;entryY=-0.023;entryDx=0;entryDy=0;entryPerimeter=0;" edge="1" parent="1" source="NA9aod1qzqYgqfO9eW3W-34" target="NA9aod1qzqYgqfO9eW3W-43">
          <mxGeometry relative="1" as="geometry">
            <mxPoint x="215" y="90" as="targetPoint" />
          </mxGeometry>
        </mxCell>
        <mxCell id="NA9aod1qzqYgqfO9eW3W-34" value="DataSource" style="shape=datastore;whiteSpace=wrap;html=1;fillColor=#d5e8d4;strokeColor=#82b366;" vertex="1" parent="1">
          <mxGeometry x="99" y="70" width="70" height="60" as="geometry" />
        </mxCell>
        <mxCell id="NA9aod1qzqYgqfO9eW3W-38" style="edgeStyle=orthogonalEdgeStyle;rounded=0;orthogonalLoop=1;jettySize=auto;html=1;exitX=0.5;exitY=1;exitDx=0;exitDy=0;entryX=0;entryY=0.5;entryDx=0;entryDy=0;" edge="1" parent="1" source="NA9aod1qzqYgqfO9eW3W-43" target="NA9aod1qzqYgqfO9eW3W-36">
          <mxGeometry relative="1" as="geometry">
            <mxPoint x="391" y="90" as="sourcePoint" />
          </mxGeometry>
        </mxCell>
        <mxCell id="NA9aod1qzqYgqfO9eW3W-36" value="Data&lt;br&gt;Destination" style="shape=datastore;whiteSpace=wrap;html=1;fillColor=#dae8fc;strokeColor=#6c8ebf;" vertex="1" parent="1">
          <mxGeometry x="289" y="300" width="91" height="60" as="geometry" />
        </mxCell>
        <mxCell id="NA9aod1qzqYgqfO9eW3W-43" value="" style="rounded=0;whiteSpace=wrap;html=1;fillColor=#fff2cc;strokeColor=#d6b656;" vertex="1" parent="1">
          <mxGeometry x="138" y="150" width="205" height="130" as="geometry" />
        </mxCell>
        <mxCell id="NA9aod1qzqYgqfO9eW3W-48" style="edgeStyle=orthogonalEdgeStyle;rounded=0;orthogonalLoop=1;jettySize=auto;html=1;exitX=0.5;exitY=1;exitDx=0;exitDy=0;entryX=0;entryY=0.5;entryDx=0;entryDy=0;" edge="1" parent="1" source="NA9aod1qzqYgqfO9eW3W-44" target="NA9aod1qzqYgqfO9eW3W-46">
          <mxGeometry relative="1" as="geometry" />
        </mxCell>
        <mxCell id="NA9aod1qzqYgqfO9eW3W-44" value="Input&lt;br&gt;Plugin" style="rounded=1;whiteSpace=wrap;html=1;" vertex="1" parent="1">
          <mxGeometry x="143" y="190" width="80" height="30" as="geometry" />
        </mxCell>
        <mxCell id="NA9aod1qzqYgqfO9eW3W-45" value="&lt;span&gt;Output&lt;/span&gt;&lt;br&gt;&lt;span&gt;Plugin&lt;/span&gt;" style="rounded=1;whiteSpace=wrap;html=1;" vertex="1" parent="1">
          <mxGeometry x="257" y="190" width="80" height="30" as="geometry" />
        </mxCell>
        <mxCell id="NA9aod1qzqYgqfO9eW3W-49" style="edgeStyle=orthogonalEdgeStyle;rounded=0;orthogonalLoop=1;jettySize=auto;html=1;exitX=0.75;exitY=0;exitDx=0;exitDy=0;entryX=0.5;entryY=1;entryDx=0;entryDy=0;" edge="1" parent="1" source="NA9aod1qzqYgqfO9eW3W-46" target="NA9aod1qzqYgqfO9eW3W-45">
          <mxGeometry relative="1" as="geometry" />
        </mxCell>
        <mxCell id="NA9aod1qzqYgqfO9eW3W-46" value="&lt;font face=&quot;Courier New&quot;&gt;Function&lt;br&gt;Plugin&lt;/font&gt;" style="label;whiteSpace=wrap;html=1;image=img/clipart/Gear_128x128.png" vertex="1" parent="1">
          <mxGeometry x="213" y="238" width="120" height="30" as="geometry" />
        </mxCell>
        <mxCell id="NA9aod1qzqYgqfO9eW3W-47" value="Loghub" style="text;html=1;strokeColor=none;fillColor=none;align=center;verticalAlign=middle;whiteSpace=wrap;rounded=0;" vertex="1" parent="1">
          <mxGeometry x="223" y="160" width="40" height="20" as="geometry" />
        </mxCell>
        <mxCell id="NA9aod1qzqYgqfO9eW3W-50" value="内存" style="outlineConnect=0;fillColor=#60a917;strokeColor=#2D7600;dashed=0;verticalLabelPosition=bottom;verticalAlign=top;align=center;html=1;fontSize=12;fontStyle=0;aspect=fixed;pointerEvents=1;shape=mxgraph.aws4.iot_analytics_data_store;fontColor=#ffffff;shadow=0;" vertex="1" parent="1">
          <mxGeometry x="555" y="61" width="55" height="79.45" as="geometry" />
        </mxCell>
        <mxCell id="NA9aod1qzqYgqfO9eW3W-53" value="" style="aspect=fixed;html=1;points=[];align=center;image;fontSize=12;image=img/lib/mscae/Data_Lake_Store.svg;shadow=0;" vertex="1" parent="1">
          <mxGeometry x="625.5400000000001" y="150" width="76.92" height="60" as="geometry" />
        </mxCell>
        <mxCell id="NA9aod1qzqYgqfO9eW3W-54" value="" style="edgeStyle=segmentEdgeStyle;endArrow=classic;html=1;entryX=0.493;entryY=0;entryDx=0;entryDy=0;entryPerimeter=0;dashed=1;" edge="1" parent="1" source="NA9aod1qzqYgqfO9eW3W-50" target="NA9aod1qzqYgqfO9eW3W-53">
          <mxGeometry width="50" height="50" relative="1" as="geometry">
            <mxPoint x="480" y="260" as="sourcePoint" />
            <mxPoint x="530" y="210" as="targetPoint" />
          </mxGeometry>
        </mxCell>
        <mxCell id="NA9aod1qzqYgqfO9eW3W-58" value="内存" style="text;html=1;strokeColor=none;fillColor=none;align=center;verticalAlign=middle;whiteSpace=wrap;rounded=0;shadow=0;" vertex="1" parent="1">
          <mxGeometry x="563" y="140" width="40" height="20" as="geometry" />
        </mxCell>
        <mxCell id="NA9aod1qzqYgqfO9eW3W-59" value="磁盘" style="text;html=1;strokeColor=none;fillColor=none;align=center;verticalAlign=middle;whiteSpace=wrap;rounded=0;shadow=0;" vertex="1" parent="1">
          <mxGeometry x="644" y="210" width="40" height="20" as="geometry" />
        </mxCell>
        <mxCell id="NA9aod1qzqYgqfO9eW3W-60" value="&lt;font color=&quot;#ff3333&quot;&gt;内存溢出&lt;/font&gt;" style="text;html=1;align=center;verticalAlign=middle;resizable=0;points=[];autosize=1;" vertex="1" parent="1">
          <mxGeometry x="604" y="80" width="60" height="20" as="geometry" />
        </mxCell>
        <mxCell id="NA9aod1qzqYgqfO9eW3W-61" value="Label" style="endArrow=classic;html=1;" edge="1" parent="1">
          <mxGeometry relative="1" as="geometry">
            <mxPoint x="390" y="110" as="sourcePoint" />
            <mxPoint x="555" y="110" as="targetPoint" />
          </mxGeometry>
        </mxCell>
        <mxCell id="NA9aod1qzqYgqfO9eW3W-62" value="&lt;font color=&quot;#ff3333&quot;&gt;Event&lt;/font&gt;" style="edgeLabel;resizable=0;html=1;align=center;verticalAlign=middle;" connectable="0" vertex="1" parent="NA9aod1qzqYgqfO9eW3W-61">
          <mxGeometry relative="1" as="geometry" />
        </mxCell>
        <mxCell id="NA9aod1qzqYgqfO9eW3W-63" value="DataSource" style="edgeLabel;resizable=0;html=1;align=left;verticalAlign=bottom;" connectable="0" vertex="1" parent="NA9aod1qzqYgqfO9eW3W-61">
          <mxGeometry x="-1" relative="1" as="geometry" />
        </mxCell>
        <mxCell id="NA9aod1qzqYgqfO9eW3W-64" value="channel" style="edgeLabel;resizable=0;html=1;align=right;verticalAlign=bottom;" connectable="0" vertex="1" parent="NA9aod1qzqYgqfO9eW3W-61">
          <mxGeometry x="1" relative="1" as="geometry" />
        </mxCell>
      </root>
    </mxGraphModel>
  </diagram>
</mxfile>
